<svg width="237" height="70" viewBox="0 0 237 70" fill="none" xmlns="http://www.w3.org/2000/svg">
<path d="M234.793 0.6875H235.635L235.463 1.51172L221.431 68.7754L221.318 69.3203H0.896973L1.1333 68.4551L13.3716 23.7559L13.4419 23.499L13.6685 23.3564L49.6821 0.799805L49.8491 0.695312H50.0454C111.628 0.684695 173.211 0.680259 234.793 0.6875Z" fill="#64C2FF" stroke="black" stroke-width="1.36835"/>
<path d="M99.0227 7.68018L99.0266 7.70068H105.639L102.375 22.7817L102.112 23.9985L103.186 23.3706L129.931 7.72803L146.49 7.70068L146.925 11.9683L147.026 12.9624L147.809 12.3423L153.619 7.73779L226.39 7.70068L214.734 61.6421H11.2249L19.9202 28.2944L52.6331 7.70459L75.2385 7.70068C76.1674 7.70069 77.5904 7.77707 79.095 8.00244C80.5639 8.22247 82.2695 8.6078 83.6838 9.29736C84.3662 9.70154 85.0303 10.1943 85.4006 10.5171L85.7463 10.8179L86.1028 10.5308L89.6467 7.68018H99.0227Z" fill="black" stroke="#64C2FF" stroke-width="1.09468"/>
<path fill-rule="evenodd" clip-rule="evenodd" d="M42.4692 59.165L53.2417 9.90332H74.652C76.3353 9.90332 79.971 10.1824 82.2601 11.2988C86.6532 13.4373 88.2167 17.7579 88.2517 21.4293L90.7564 9.90332H102.539L93.9882 49.1871H107.912L131.053 9.90332H144.384L148.275 47.8593L176.19 19.5324H153.298L155.452 9.90332H193.089L193.078 9.94976H223.573L221.486 19.4393H198.931L196.844 28.9288H218.591L216.638 37.9996H194.891L192.265 49.8615H214.926L212.973 59.2114H178.53L178.541 59.165H137.853L137.247 49.3964H119.742L114.49 59.165H80.0513L80.7839 55.7938C76.7489 58.817 71.6916 59.165 68.9292 59.165H42.4692ZM180.644 49.6057L186.089 24.8594L161.647 49.6057H180.644ZM86.0978 28.6032C86.453 28.118 86.7618 27.6046 87.0259 27.0699L84.728 37.6442C83.1256 35.392 80.7247 34.2611 78.5469 33.2353L78.4897 33.2084L78.5484 33.1928C80.8952 32.5676 83.8276 31.7863 86.0978 28.6032ZM62.8696 18.8346L60.5132 29.301H69.3331L69.4255 29.2957C71.8795 29.1553 76.6719 28.8812 76.6719 23.3003C76.6719 19.1137 73.2382 18.9044 71.4203 18.8346H62.8696ZM58.5606 38.2323L56.0022 50.0942H66.3034C68.8618 50.0244 71.2856 49.9546 73.0362 47.5125C73.9788 46.1867 74.2481 44.5819 74.2481 43.3259C74.2481 42.4886 74.1134 41.7211 73.8441 41.0233C72.6768 38.5366 70.51 38.3804 68.6675 38.2475L68.4579 38.2323H58.5606ZM135.429 20.2301L136.709 40.4651H124.59L135.429 20.2301Z" fill="#EE241B"/>
</svg>
